<svg width="18" height="18" viewBox="0 0 18 18" fill="none" xmlns="http://www.w3.org/2000/svg">
<path d="M3.94934 7.3234C4.64879 5.20397 6.64053 3.68182 8.99969 3.68182C10.2679 3.68182 11.4133 4.13182 12.3133 4.86818L14.9315 2.25C13.3361 0.859091 11.2906 0 8.99969 0C5.45225 0 2.39801 2.02372 0.929688 4.98752L3.94934 7.3234Z" fill="#EA4335"/>
<path d="M12.0302 13.5095C11.2128 14.0372 10.1742 14.3182 8.99964 14.3182C6.6495 14.3182 4.66398 12.8077 3.95737 10.7009L0.927734 13.0013C2.39423 15.9702 5.44839 18 8.99964 18C11.1993 18 13.3011 17.2181 14.8753 15.7497L12.0302 13.5095Z" fill="#34A853"/>
<path d="M14.8756 15.7496C16.5219 14.214 17.5909 11.9276 17.5909 8.99989C17.5909 8.46807 17.5091 7.89534 17.3864 7.36353H9V10.8408H13.8273C13.5891 12.0101 12.9497 12.9158 12.0305 13.5093L14.8756 15.7496Z" fill="#4A90E2"/>
<path d="M3.95774 10.7009C3.77874 10.1673 3.68182 9.59535 3.68182 9.00003C3.68182 8.41374 3.77583 7.85014 3.94965 7.32343L0.929993 4.98755C0.32744 6.19535 0 7.55657 0 9.00003C0 10.4397 0.333586 11.7977 0.928097 13.0013L3.95774 10.7009Z" fill="#FBBC05"/>
</svg>
