<svg width="264" height="256" viewBox="0 0 264 256" fill="none" xmlns="http://www.w3.org/2000/svg">
<g clip-path="url(#clip0_264_45348)">
<path d="M48.7124 90.3219C57.3388 64.1823 81.9037 45.4091 111 45.4091C126.641 45.4091 140.768 50.9591 151.868 60.0409L184.159 27.75C164.482 10.5955 139.255 0 111 0C67.2482 0 29.5792 24.9593 11.47 61.5127L48.7124 90.3219Z" fill="#EA4335"/>
<path d="M148.377 166.616C138.296 173.126 125.486 176.591 111 176.591C82.015 176.591 57.5269 157.961 48.8121 131.978L11.4465 160.349C29.5333 196.966 67.2013 222 111 222C138.129 222 164.052 212.356 183.466 194.246L148.377 166.616Z" fill="#34A853"/>
<path d="M183.466 194.246C203.77 175.307 216.955 147.109 216.955 111C216.955 104.441 215.945 97.3772 214.432 90.8181H111V133.704H170.536C167.599 148.126 159.713 159.296 148.377 166.616L183.466 194.246Z" fill="#4A90E2"/>
<path d="M48.8121 131.978C46.6045 125.396 45.4091 118.342 45.4091 111C45.4091 103.769 46.5685 96.818 48.7124 90.3219L11.4699 61.5127C4.03843 76.409 0 93.1973 0 111C0 128.756 4.11422 145.504 11.4465 160.349L48.8121 131.978Z" fill="#FBBC05"/>
</g>
<rect x="162.21" y="186.923" width="71.7482" height="44.5594" fill="white"/>
<path d="M236.585 162H159.415C144.274 162 132 174.274 132 189.415V227.992C132 243.133 144.274 255.407 159.415 255.407H236.585C251.727 255.407 264 243.133 264 227.992V189.415C264 174.274 251.727 162 236.585 162ZM218.045 210.58L181.95 227.795C180.988 228.255 179.877 227.553 179.877 226.487V190.981C179.877 189.9 181.018 189.2 181.981 189.689L218.077 207.98C219.149 208.524 219.131 210.063 218.045 210.58Z" fill="#F61C0D"/>
<defs>
<clipPath id="clip0_264_45348">
<rect width="222" height="222" fill="white"/>
</clipPath>
</defs>
</svg>
