<svg width="18" height="18" viewBox="0 0 18 18" fill="none" xmlns="http://www.w3.org/2000/svg">
<path d="M7.50005 0C3.35793 0 0 3.37197 0 7.5314C0 11.2619 2.70391 14.3514 6.24919 14.9497V9.10265H4.43996V6.99854H6.24919V5.44706C6.24919 3.64688 7.3441 2.66589 8.94353 2.66589C9.70956 2.66589 10.3679 2.72321 10.559 2.74846V4.63012L9.44965 4.63066C8.58002 4.63066 8.41235 5.04555 8.41235 5.65459V6.99747H10.4874L10.2168 9.10158H8.41235V15C12.1231 14.5465 15 11.3783 15 7.52924C15 3.37197 11.6421 0 7.50005 0Z" fill="#3B5998"/>
<path d="M17.8414 11.158H9.15723V17.7895H17.8414V11.158Z" fill="#ECF0F1"/>
<path d="M18 17.9474H9V11H18V17.9474ZM9.31579 17.6316H17.6842V11.3158H9.31579V17.6316Z" fill="#545E73"/>
<path d="M17.2101 11.7893H9.78906V17.1577H17.2101V11.7893Z" fill="#545E73"/>
<path d="M17.3687 17.3156H9.63184V11.6313H17.3687V17.3156ZM9.94763 16.9998H17.0529V11.9471H9.94763V16.9998Z" fill="#ECF0F1"/>
<path d="M11.3679 13.864C11.7663 13.864 12.0893 13.541 12.0893 13.1426C12.0893 12.7441 11.7663 12.4211 11.3679 12.4211C10.9695 12.4211 10.6465 12.7441 10.6465 13.1426C10.6465 13.541 10.9695 13.864 11.3679 13.864Z" fill="#F3D55A"/>
<path d="M17.0533 15.5963L16.8954 15.4209L15.0007 13.6841L13.3428 15.4999L14.2085 16.3656L14.8428 16.9999H17.0533V15.5963Z" fill="#11A085"/>
<path d="M9.94727 17H14.842L14.2077 16.3658L12.4763 14.6343L9.94727 16.8421V17Z" fill="#26B999"/>
</svg>
