<svg width="18" height="19" viewBox="0 0 18 19" fill="none" xmlns="http://www.w3.org/2000/svg">
<path d="M7.50005 0C3.35793 0 0 3.37197 0 7.5314C0 11.2619 2.70391 14.3514 6.24919 14.9497V9.10265H4.43996V6.99854H6.24919V5.44706C6.24919 3.64688 7.3441 2.66589 8.94353 2.66589C9.70956 2.66589 10.3679 2.72321 10.559 2.74846V4.63012L9.44965 4.63066C8.58002 4.63066 8.41235 5.04555 8.41235 5.65459V6.99747H10.4874L10.2168 9.10158H8.41235V15C12.1231 14.5465 15 11.3783 15 7.52924C15 3.37197 11.6421 0 7.50005 0Z" fill="#3B5998"/>
<path d="M17.9986 16.7932C17.9986 17.3302 17.5632 17.7656 17.0262 17.7656H9.97243C9.43542 17.7656 9 17.3302 9 16.7932V12.2068C9 11.6698 9.43542 11.2344 9.97243 11.2344H17.0262C17.5632 11.2344 17.9986 11.6698 17.9986 12.2068V16.7932Z" fill="#F15249"/>
<path d="M10.0156 11.2344H17.0258C17.5628 11.2344 17.9982 11.6117 17.9982 12.1487V16.7061C18.0273 17.2721 17.6064 17.7656 17.0693 17.7656" fill="#AD0E0E"/>
<path d="M12.0479 12.3374V16.5174L14.8926 14.4274L12.0479 12.3374Z" fill="white"/>
<path d="M12.0479 14.3403V16.5174L14.8926 14.4274L12.0479 14.3403Z" fill="#EFEFEF"/>
<path d="M9.92841 12.4681C10.1208 12.4681 10.2767 12.3122 10.2767 12.1198C10.2767 11.9274 10.1208 11.7715 9.92841 11.7715C9.73603 11.7715 9.58008 11.9274 9.58008 12.1198C9.58008 12.3122 9.73603 12.4681 9.92841 12.4681Z" fill="#AD0E0E"/>
<path d="M9.92841 13.6293C10.1208 13.6293 10.2767 13.4733 10.2767 13.2809C10.2767 13.0886 10.1208 12.9326 9.92841 12.9326C9.73603 12.9326 9.58008 13.0886 9.58008 13.2809C9.58008 13.4733 9.73603 13.6293 9.92841 13.6293Z" fill="#AD0E0E"/>
<path d="M9.92841 14.7758C10.1208 14.7758 10.2767 14.6198 10.2767 14.4274C10.2767 14.2351 10.1208 14.0791 9.92841 14.0791C9.73603 14.0791 9.58008 14.2351 9.58008 14.4274C9.58008 14.6198 9.73603 14.7758 9.92841 14.7758Z" fill="#AD0E0E"/>
<path d="M9.92841 15.9222C10.1208 15.9222 10.2767 15.7663 10.2767 15.5739C10.2767 15.3815 10.1208 15.2256 9.92841 15.2256C9.73603 15.2256 9.58008 15.3815 9.58008 15.5739C9.58008 15.7663 9.73603 15.9222 9.92841 15.9222Z" fill="#AD0E0E"/>
<path d="M9.92841 17.0834C10.1208 17.0834 10.2767 16.9274 10.2767 16.7351C10.2767 16.5427 10.1208 16.3867 9.92841 16.3867C9.73603 16.3867 9.58008 16.5427 9.58008 16.7351C9.58008 16.9274 9.73603 17.0834 9.92841 17.0834Z" fill="#AD0E0E"/>
<path d="M17.07 12.4681C17.2624 12.4681 17.4183 12.3122 17.4183 12.1198C17.4183 11.9274 17.2624 11.7715 17.07 11.7715C16.8776 11.7715 16.7217 11.9274 16.7217 12.1198C16.7217 12.3122 16.8776 12.4681 17.07 12.4681Z" fill="#F15249"/>
<path d="M17.07 13.6293C17.2624 13.6293 17.4183 13.4733 17.4183 13.2809C17.4183 13.0886 17.2624 12.9326 17.07 12.9326C16.8776 12.9326 16.7217 13.0886 16.7217 13.2809C16.7217 13.4733 16.8776 13.6293 17.07 13.6293Z" fill="#F15249"/>
<path d="M17.07 14.7758C17.2624 14.7758 17.4183 14.6198 17.4183 14.4274C17.4183 14.2351 17.2624 14.0791 17.07 14.0791C16.8776 14.0791 16.7217 14.2351 16.7217 14.4274C16.7217 14.6198 16.8776 14.7758 17.07 14.7758Z" fill="#F15249"/>
<path d="M17.07 15.9222C17.2624 15.9222 17.4183 15.7663 17.4183 15.5739C17.4183 15.3815 17.2624 15.2256 17.07 15.2256C16.8776 15.2256 16.7217 15.3815 16.7217 15.5739C16.7217 15.7663 16.8776 15.9222 17.07 15.9222Z" fill="#F15249"/>
<path d="M17.07 17.0834C17.2624 17.0834 17.4183 16.9274 17.4183 16.7351C17.4183 16.5427 17.2624 16.3867 17.07 16.3867C16.8776 16.3867 16.7217 16.5427 16.7217 16.7351C16.7217 16.9274 16.8776 17.0834 17.07 17.0834Z" fill="#F15249"/>
</svg>
