<svg width="18" height="18" viewBox="0 0 18 18" fill="none" xmlns="http://www.w3.org/2000/svg">
<g clip-path="url(#clip0_430_10089)">
<path d="M9.00002 18C13.9706 18 18 13.9706 18 9.00002C18 4.02945 13.9706 0 9.00002 0C4.02945 0 0 4.02945 0 9.00002C0 13.9706 4.02945 18 9.00002 18Z" fill="#D42428"/>
<path d="M15.3635 2.63525C18.8783 6.15028 18.8786 11.849 15.3635 15.364C11.8488 18.8787 6.14979 18.8789 2.63477 15.364L15.3635 2.63525Z" fill="#CC202D"/>
<path d="M17.8192 10.8024L13.3648 6.34814L8.11136 6.9463L4.93359 11.866L10.8715 17.8037C14.3626 17.0652 17.1073 14.3036 17.8192 10.8024Z" fill="#BA202E"/>
<path d="M13.7099 7.26346C13.7099 6.50898 13.0987 5.89746 12.3447 5.89746H5.93923C5.18532 5.89746 4.57422 6.50913 4.57422 7.26346V10.9264C4.57422 11.6809 5.18543 12.2924 5.93923 12.2924H12.3445C13.0987 12.2924 13.7098 11.6807 13.7098 10.9264V7.26346H13.7099ZM8.22821 10.6402V7.1998L10.8373 8.92008L8.22821 10.6402Z" fill="white"/>
</g>
<defs>
<clipPath id="clip0_430_10089">
<rect width="18" height="18" fill="white"/>
</clipPath>
</defs>
</svg>
