<?xml version="1.0" standalone="no"?>
<!DOCTYPE svg PUBLIC "-//W3C//DTD SVG 20010904//EN"
 "http://www.w3.org/TR/2001/REC-SVG-20010904/DTD/svg10.dtd">
<svg version="1.0" xmlns="http://www.w3.org/2000/svg"
 width="256.000000pt" height="256.000000pt" viewBox="0 0 256.000000 256.000000"
 preserveAspectRatio="xMidYMid meet">
<metadata>
Created by potrace 1.14, written by Peter Selinger 2001-2017
</metadata>
<g transform="translate(0.000000,256.000000) scale(0.100000,-0.100000)"
fill="#000000" stroke="none">
<path d="M2195 1769 c-90 -48 -251 -143 -267 -157 -16 -13 -18 -36 -18 -201 0
-102 4 -191 8 -197 6 -10 269 -164 279 -164 2 0 12 -8 21 -17 14 -14 17 -38
17 -137 0 -100 3 -121 15 -121 8 0 65 77 127 170 62 94 116 175 120 180 4 6
20 29 36 52 l27 43 0 188 c0 167 -2 191 -17 204 -18 15 -271 164 -295 173 -7
3 -31 -4 -53 -16z"/>
<path d="M222 1391 c-5 -3 -39 -89 -75 -191 -36 -102 -84 -236 -106 -298 l-41
-113 52 3 51 3 25 72 25 71 112 1 112 1 17 -47 c41 -111 33 -103 88 -103 44 0
49 2 43 18 -4 9 -22 60 -40 112 -19 52 -49 138 -68 190 -19 52 -37 102 -40
110 -2 8 -18 51 -34 94 l-28 80 -42 2 c-22 1 -45 -1 -51 -5z m87 -255 c17 -49
31 -93 31 -98 0 -4 -34 -8 -75 -8 -41 0 -75 3 -75 7 0 4 16 54 37 111 23 65
39 99 44 90 4 -7 21 -53 38 -102z"/>
<path d="M786 1390 c-2 -3 16 -63 40 -135 23 -71 68 -210 99 -307 43 -135 61
-178 73 -179 41 -2 83 -1 85 2 1 2 29 83 61 179 32 96 62 178 65 182 6 7 121
-325 121 -349 0 -13 11 -15 65 -15 40 0 42 1 50 20 6 14 47 131 190 542 l22
66 -52 1 -52 0 -77 -241 c-43 -132 -79 -245 -81 -251 -4 -14 -11 5 -85 230
l-66 200 -34 0 -34 0 -71 -220 c-70 -215 -72 -219 -83 -185 -7 19 -39 129 -71
244 -33 115 -63 211 -66 215 -8 8 -95 9 -99 1z"/>
<path d="M520 990 l0 -40 135 0 135 0 0 40 0 40 -135 0 -135 0 0 -40z"/>
<path d="M1670 855 c0 -78 3 -95 15 -95 15 0 16 4 19 110 3 65 -1 80 -20 80
-11 0 -14 -20 -14 -95z"/>
<path d="M1773 932 c-46 -36 -43 -126 6 -155 55 -32 106 -18 135 37 18 35 5
94 -25 119 -27 22 -88 22 -116 -1z m99 -29 c22 -20 23 -61 2 -91 -29 -42 -92
-19 -98 36 -8 60 52 95 96 55z"/>
<path d="M1594 803 c-7 -2 -10 -13 -7 -24 4 -13 11 -18 20 -15 8 3 17 6 19 6
2 0 4 6 4 14 0 15 -19 25 -36 19z"/>
</g>
</svg>
