<svg width="19" height="19" viewBox="0 0 19 19" fill="none" xmlns="http://www.w3.org/2000/svg">
<path d="M0 2C0 0.895431 0.895431 0 2 0H17C18.1046 0 19 0.895431 19 2V17C19 18.1046 18.1046 19 17 19H2C0.895431 19 0 18.1046 0 17V2Z" fill="#03A9F4"/>
<path d="M2 4C2 2.89543 2.89543 2 4 2H15C16.1046 2 17 2.89543 17 4V15C17 16.1046 16.1046 17 15 17H4C2.89543 17 2 16.1046 2 15V4Z" fill="white"/>
<path d="M6.43255 13.14C5.86255 13.14 5.36588 13.005 4.94255 12.735C4.52255 12.4617 4.19588 12.0717 3.96255 11.565C3.72922 11.0583 3.61255 10.45 3.61255 9.74C3.61255 9.00666 3.73255 8.39166 3.97255 7.895C4.21588 7.395 4.54922 7.01833 4.97255 6.765C5.39922 6.50833 5.88588 6.38 6.43255 6.38C7.18922 6.38 7.77922 6.56333 8.20255 6.93C8.62922 7.29666 8.90255 7.77333 9.02255 8.36L7.76255 8.59C7.65922 8.25 7.49422 7.975 7.26755 7.765C7.04088 7.555 6.76255 7.45 6.43255 7.45C6.14255 7.45 5.88088 7.535 5.64755 7.705C5.41422 7.87166 5.22755 8.125 5.08755 8.465C4.95088 8.805 4.88255 9.23 4.88255 9.74C4.88255 10.22 4.94255 10.6333 5.06255 10.98C5.18588 11.3267 5.36255 11.5933 5.59255 11.78C5.82255 11.9667 6.10255 12.06 6.43255 12.06C6.85588 12.06 7.18255 11.9483 7.41255 11.725C7.64588 11.4983 7.76255 11.21 7.76255 10.86H9.02255C9.02255 11.3433 8.91755 11.755 8.70755 12.095C8.50088 12.4317 8.20422 12.69 7.81755 12.87C7.43088 13.05 6.96922 13.14 6.43255 13.14Z" fill="#03A9F4"/>
<path d="M12.6704 13.14C12.2204 13.14 11.8054 13.0617 11.4254 12.905C11.0488 12.7483 10.7421 12.51 10.5054 12.19C10.2721 11.87 10.1471 11.4633 10.1304 10.97H11.2904C11.2904 11.22 11.3521 11.425 11.4754 11.585C11.5988 11.745 11.7638 11.865 11.9704 11.945C12.1804 12.0217 12.4104 12.06 12.6604 12.06C12.9004 12.06 13.1138 12.0283 13.3004 11.965C13.4904 11.9017 13.6388 11.8117 13.7454 11.695C13.8554 11.575 13.9104 11.4333 13.9104 11.27C13.9104 11.0533 13.8438 10.8833 13.7104 10.76C13.5804 10.6367 13.3704 10.5233 13.0804 10.42L11.8004 9.91C11.3004 9.71333 10.9171 9.485 10.6504 9.225C10.3838 8.965 10.2504 8.60666 10.2504 8.15C10.2504 7.62333 10.4588 7.19666 10.8754 6.87C11.2921 6.54333 11.8738 6.38 12.6204 6.38C13.3471 6.38 13.9088 6.55 14.3054 6.89C14.7021 7.22666 14.9271 7.69666 14.9804 8.3H13.8204C13.7771 8.04333 13.6604 7.83833 13.4704 7.685C13.2804 7.52833 12.9971 7.45 12.6204 7.45C12.2871 7.45 12.0238 7.52 11.8304 7.66C11.6371 7.79666 11.5404 7.97 11.5404 8.18C11.5404 8.36 11.6004 8.50333 11.7204 8.61C11.8438 8.71333 12.0338 8.81333 12.2904 8.91L13.7104 9.46C14.1904 9.64666 14.5588 9.88166 14.8154 10.165C15.0721 10.4483 15.2004 10.8033 15.2004 11.23C15.2004 11.62 15.1021 11.9583 14.9054 12.245C14.7088 12.5283 14.4221 12.7483 14.0454 12.905C13.6688 13.0617 13.2104 13.14 12.6704 13.14Z" fill="#03A9F4"/>
</svg>
