<svg width="19" height="19" viewBox="0 0 19 19" fill="none" xmlns="http://www.w3.org/2000/svg">
<path d="M0 2C0 0.895431 0.895431 0 2 0H17C18.1046 0 19 0.895431 19 2V17C19 18.1046 18.1046 19 17 19H2C0.895431 19 0 18.1046 0 17V2Z" fill="#84C529"/>
<path d="M2 4C2 2.89543 2.89543 2 4 2H15C16.1046 2 17 2.89543 17 4V15C17 16.1046 16.1046 17 15 17H4C2.89543 17 2 16.1046 2 15V4Z" fill="white"/>
<path d="M9.64523 13.168C8.96123 13.168 8.36523 13.006 7.85723 12.682C7.35323 12.354 6.96123 11.886 6.68123 11.278C6.40123 10.67 6.26123 9.94 6.26123 9.088C6.26123 8.208 6.40523 7.47 6.69323 6.874C6.98523 6.274 7.38523 5.822 7.89323 5.518C8.40523 5.21 8.98923 5.056 9.64523 5.056C10.5532 5.056 11.2612 5.276 11.7692 5.716C12.2812 6.156 12.6092 6.728 12.7532 7.432L11.2412 7.708C11.1172 7.3 10.9192 6.97 10.6472 6.718C10.3752 6.466 10.0412 6.34 9.64523 6.34C9.29723 6.34 8.98323 6.442 8.70323 6.646C8.42323 6.846 8.19923 7.15 8.03123 7.558C7.86723 7.966 7.78523 8.476 7.78523 9.088C7.78523 9.664 7.85723 10.16 8.00123 10.576C8.14923 10.992 8.36123 11.312 8.63723 11.536C8.91323 11.76 9.24923 11.872 9.64523 11.872C10.1532 11.872 10.5452 11.738 10.8212 11.47C11.1012 11.198 11.2412 10.852 11.2412 10.432H12.7532C12.7532 11.012 12.6272 11.506 12.3752 11.914C12.1272 12.318 11.7712 12.628 11.3072 12.844C10.8432 13.06 10.2892 13.168 9.64523 13.168Z" fill="#84C529"/>
</svg>
