<svg width="19" height="19" viewBox="0 0 19 19" fill="none" xmlns="http://www.w3.org/2000/svg">
<path d="M0 2C0 0.895431 0.895431 0 2 0H17C18.1046 0 19 0.895431 19 2V17C19 18.1046 18.1046 19 17 19H2C0.895431 19 0 18.1046 0 17V2Z" fill="#F22076"/>
<path d="M2 4C2 2.89543 2.89543 2 4 2H15C16.1046 2 17 2.89543 17 4V15C17 16.1046 16.1046 17 15 17H4C2.89543 17 2 16.1046 2 15V4Z" fill="white"/>
<path d="M4.17017 13V6.51H8.26017V7.53H5.35017V9.24H8.01017V10.25H5.35017V13H4.17017Z" fill="#F22076"/>
<path d="M9.63892 6.51H10.8189V9.22H13.6489V6.51H14.8289V13H13.6489V10.25H10.8189V13H9.63892V6.51Z" fill="#F22076"/>
</svg>
