<svg width="19" height="19" viewBox="0 0 19 19" fill="none" xmlns="http://www.w3.org/2000/svg">
<path d="M0 2C0 0.895431 0.895431 0 2 0H17C18.1046 0 19 0.895431 19 2V17C19 18.1046 18.1046 19 17 19H2C0.895431 19 0 18.1046 0 17V2Z" fill="#FF6F00"/>
<path d="M2 4C2 2.89543 2.89543 2 4 2H15C16.1046 2 17 2.89543 17 4V15C17 16.1046 16.1046 17 15 17H4C2.89543 17 2 16.1046 2 15V4Z" fill="white"/>
<path d="M4.6687 13V5.212H6.0847V13H4.6687Z" fill="#FF6F00"/>
<path d="M8.32495 5.212H10.845C11.637 5.212 12.331 5.372 12.927 5.692C13.523 6.008 13.987 6.458 14.319 7.042C14.651 7.626 14.817 8.316 14.817 9.112C14.817 9.9 14.651 10.586 14.319 11.17C13.987 11.75 13.523 12.2 12.927 12.52C12.331 12.84 11.637 13 10.845 13H8.32495V5.212ZM9.74095 6.496V11.728H10.845C11.349 11.728 11.783 11.614 12.147 11.386C12.515 11.158 12.797 10.848 12.993 10.456C13.193 10.06 13.293 9.612 13.293 9.112C13.293 8.604 13.193 8.154 12.993 7.762C12.797 7.37 12.515 7.062 12.147 6.838C11.783 6.61 11.349 6.496 10.845 6.496H9.74095Z" fill="#FF6F00"/>
</svg>
