<svg width="19" height="19" viewBox="0 0 19 19" fill="none" xmlns="http://www.w3.org/2000/svg">
<path d="M0 2C0 0.895431 0.895431 0 2 0H17C18.1046 0 19 0.895431 19 2V17C19 18.1046 18.1046 19 17 19H2C0.895431 19 0 18.1046 0 17V2Z" fill="#FFAB00"/>
<path d="M2 4C2 2.89543 2.89543 2 4 2H15C16.1046 2 17 2.89543 17 4V15C17 16.1046 16.1046 17 15 17H4C2.89543 17 2 16.1046 2 15V4Z" fill="white"/>
<path d="M5.30737 13V5.212H6.72337V13H5.30737Z" fill="#FFAB00"/>
<path d="M8.92762 13V5.212H11.6756C12.5516 5.212 13.2336 5.428 13.7216 5.86C14.2136 6.292 14.4596 6.904 14.4596 7.696C14.4596 8.48 14.2136 9.088 13.7216 9.52C13.2336 9.952 12.5516 10.168 11.6756 10.168H10.3556V13H8.92762ZM10.3556 8.932H11.6756C12.1156 8.932 12.4476 8.816 12.6716 8.584C12.8956 8.352 13.0076 8.056 13.0076 7.696C13.0076 7.328 12.8956 7.026 12.6716 6.79C12.4476 6.554 12.1156 6.436 11.6756 6.436H10.3556V8.932Z" fill="#FFAB00"/>
</svg>
