<svg width="19" height="19" viewBox="0 0 19 19" fill="none" xmlns="http://www.w3.org/2000/svg">
<path d="M0 2C0 0.895431 0.895431 0 2 0H17C18.1046 0 19 0.895431 19 2V17C19 18.1046 18.1046 19 17 19H2C0.895431 19 0 18.1046 0 17V2Z" fill="#899857"/>
<path d="M2 4C2 2.89543 2.89543 2 4 2H15C16.1046 2 17 2.89543 17 4V15C17 16.1046 16.1046 17 15 17H4C2.89543 17 2 16.1046 2 15V4Z" fill="white"/>
<path d="M6.35235 13.14C5.77569 13.14 5.26569 13.0133 4.82235 12.76C4.38235 12.5067 4.03735 12.1283 3.78735 11.625C3.53735 11.1217 3.41235 10.4967 3.41235 9.75001C3.41235 8.99001 3.53735 8.36167 3.78735 7.86501C4.03735 7.36501 4.38235 6.99334 4.82235 6.75001C5.26569 6.50334 5.77569 6.38 6.35235 6.38C6.93235 6.38 7.44402 6.50667 7.88735 6.76001C8.33069 7.01001 8.67735 7.38501 8.92735 7.88501C9.17735 8.38501 9.30235 9.00667 9.30235 9.75001C9.30235 10.5067 9.17735 11.1367 8.92735 11.64C8.67735 12.1433 8.33069 12.52 7.88735 12.77C7.44402 13.0167 6.93235 13.14 6.35235 13.14ZM8.34235 14.8C8.01235 14.8 7.70735 14.7117 7.42735 14.535C7.14735 14.3583 6.90235 14.11 6.69235 13.79L6.02235 12.78L6.96235 12.34L7.54235 13.24C7.63902 13.38 7.74902 13.4783 7.87235 13.535C7.99569 13.5917 8.12235 13.6233 8.25235 13.63C8.41902 13.63 8.57902 13.6083 8.73235 13.565C8.88902 13.525 9.05235 13.47 9.22235 13.4V14.62C9.06569 14.6833 8.91569 14.7283 8.77235 14.755C8.63235 14.785 8.48902 14.8 8.34235 14.8ZM6.35235 12.07C6.88235 12.07 7.30235 11.87 7.61235 11.47C7.92569 11.07 8.08235 10.4933 8.08235 9.74001C8.08235 9.01334 7.92569 8.44834 7.61235 8.04501C7.30235 7.64167 6.88235 7.44001 6.35235 7.44001C5.83235 7.44001 5.41569 7.64334 5.10235 8.05001C4.78902 8.45334 4.63235 9.02001 4.63235 9.75001C4.63235 10.5 4.78902 11.075 5.10235 11.475C5.41569 11.8717 5.83235 12.07 6.35235 12.07Z" fill="#899857"/>
<path d="M10.0178 13L12.2278 6.51H13.7078L15.8278 13H14.5878L14.1378 11.6H11.7278L11.2678 13H10.0178ZM12.0278 10.71H13.8578L12.9478 7.92001L12.0278 10.71Z" fill="#899857"/>
</svg>
