<svg width="19" height="19" viewBox="0 0 19 19" fill="none" xmlns="http://www.w3.org/2000/svg">
<path d="M0 2C0 0.895431 0.895431 0 2 0H17C18.1046 0 19 0.895431 19 2V17C19 18.1046 18.1046 19 17 19H2C0.895431 19 0 18.1046 0 17V2Z" fill="#989898"/>
<path d="M2 4C2 2.89543 2.89543 2 4 2H15C16.1046 2 17 2.89543 17 4V15C17 16.1046 16.1046 17 15 17H4C2.89543 17 2 16.1046 2 15V4Z" fill="white"/>
<path d="M3.63745 6.51H4.92745L7.87745 11.14H7.78745V6.51H8.96745V13H7.76745L4.62745 8.09001H4.81745V13H3.63745V6.51Z" fill="#989898"/>
<path d="M13.0854 13.14C12.6354 13.14 12.2204 13.0617 11.8404 12.905C11.4638 12.7483 11.1571 12.51 10.9204 12.19C10.6871 11.87 10.5621 11.4633 10.5454 10.97H11.7054C11.7054 11.22 11.7671 11.425 11.8904 11.585C12.0138 11.745 12.1788 11.865 12.3854 11.945C12.5954 12.0217 12.8254 12.06 13.0754 12.06C13.3154 12.06 13.5288 12.0283 13.7154 11.965C13.9054 11.9017 14.0538 11.8117 14.1604 11.695C14.2704 11.575 14.3254 11.4333 14.3254 11.27C14.3254 11.0533 14.2588 10.8833 14.1254 10.76C13.9954 10.6367 13.7854 10.5233 13.4954 10.42L12.2154 9.91001C11.7154 9.71334 11.3321 9.48501 11.0654 9.22501C10.7988 8.96501 10.6654 8.60667 10.6654 8.15001C10.6654 7.62334 10.8738 7.19667 11.2904 6.87001C11.7071 6.54334 12.2888 6.38 13.0354 6.38C13.7621 6.38 14.3238 6.55001 14.7204 6.89001C15.1171 7.22667 15.3421 7.69667 15.3954 8.30001H14.2354C14.1921 8.04334 14.0754 7.83834 13.8854 7.68501C13.6954 7.52834 13.4121 7.45001 13.0354 7.45001C12.7021 7.45001 12.4388 7.52001 12.2454 7.66001C12.0521 7.79667 11.9554 7.97001 11.9554 8.18001C11.9554 8.36001 12.0154 8.50334 12.1354 8.61001C12.2588 8.71334 12.4488 8.81334 12.7054 8.91001L14.1254 9.46001C14.6054 9.64667 14.9738 9.88167 15.2304 10.165C15.4871 10.4483 15.6154 10.8033 15.6154 11.23C15.6154 11.62 15.5171 11.9583 15.3204 12.245C15.1238 12.5283 14.8371 12.7483 14.4604 12.905C14.0838 13.0617 13.6254 13.14 13.0854 13.14Z" fill="#989898"/>
</svg>
