<svg width="19" height="19" viewBox="0 0 19 19" fill="none" xmlns="http://www.w3.org/2000/svg">
<path d="M0 2C0 0.895431 0.895431 0 2 0H17C18.1046 0 19 0.895431 19 2V17C19 18.1046 18.1046 19 17 19H2C0.895431 19 0 18.1046 0 17V2Z" fill="#DD2C00"/>
<path d="M2 4C2 2.89543 2.89543 2 4 2H15C16.1046 2 17 2.89543 17 4V15C17 16.1046 16.1046 17 15 17H4C2.89543 17 2 16.1046 2 15V4Z" fill="white"/>
<path d="M5.97149 13.14C5.39483 13.14 4.88483 13.0133 4.44149 12.76C4.00149 12.5067 3.65649 12.1283 3.40649 11.625C3.15649 11.1217 3.03149 10.4967 3.03149 9.75C3.03149 8.99 3.15649 8.36166 3.40649 7.865C3.65649 7.365 4.00149 6.99333 4.44149 6.75C4.88483 6.50333 5.39483 6.38 5.97149 6.38C6.55149 6.38 7.06316 6.50666 7.50649 6.76C7.94983 7.01 8.29649 7.385 8.54649 7.885C8.79649 8.385 8.92149 9.00666 8.92149 9.75C8.92149 10.5067 8.79649 11.1367 8.54649 11.64C8.29649 12.1433 7.94983 12.52 7.50649 12.77C7.06316 13.0167 6.55149 13.14 5.97149 13.14ZM5.97149 12.07C6.50149 12.07 6.92149 11.87 7.23149 11.47C7.54483 11.07 7.70149 10.4933 7.70149 9.74C7.70149 9.01333 7.54483 8.44833 7.23149 8.045C6.92149 7.64166 6.50149 7.44 5.97149 7.44C5.45149 7.44 5.03483 7.64333 4.72149 8.05C4.40816 8.45333 4.25149 9.02 4.25149 9.75C4.25149 10.5 4.40816 11.075 4.72149 11.475C5.03483 11.8717 5.45149 12.07 5.97149 12.07Z" fill="#DD2C00"/>
<path d="M10.3177 6.51H11.4977V9.22H14.3277V6.51H15.5077V13H14.3277V10.25H11.4977V13H10.3177V6.51Z" fill="#DD2C00"/>
</svg>
