<svg width="19" height="19" viewBox="0 0 19 19" fill="none" xmlns="http://www.w3.org/2000/svg">
<path d="M0 2C0 0.895431 0.895431 0 2 0H17C18.1046 0 19 0.895431 19 2V17C19 18.1046 18.1046 19 17 19H2C0.895431 19 0 18.1046 0 17V2Z" fill="#B72974"/>
<path d="M2 4C2 2.89543 2.89543 2 4 2H15C16.1046 2 17 2.89543 17 4V15C17 16.1046 16.1046 17 15 17H4C2.89543 17 2 16.1046 2 15V4Z" fill="white"/>
<path d="M2.47974 6.159H3.66774L5.08074 11.064H4.81074L6.20574 6.546H6.92574L8.37474 10.992H8.13174L9.61674 6.159H10.8137L8.80674 12H7.69074L6.54774 8.553H6.64674L5.50374 12H4.38774L2.47974 6.159Z" fill="#B72974"/>
<path d="M13.8673 12.126C13.3543 12.126 12.9073 12.0045 12.5263 11.7615C12.1483 11.5155 11.8543 11.1645 11.6443 10.7085C11.4343 10.2525 11.3293 9.705 11.3293 9.066C11.3293 8.406 11.4373 7.8525 11.6533 7.4055C11.8723 6.9555 12.1723 6.6165 12.5533 6.3885C12.9373 6.1575 13.3753 6.042 13.8673 6.042C14.5483 6.042 15.0793 6.207 15.4603 6.537C15.8443 6.867 16.0903 7.296 16.1983 7.824L15.0643 8.031C14.9713 7.725 14.8228 7.4775 14.6188 7.2885C14.4148 7.0995 14.1643 7.005 13.8673 7.005C13.6063 7.005 13.3708 7.0815 13.1608 7.2345C12.9508 7.3845 12.7828 7.6125 12.6568 7.9185C12.5338 8.2245 12.4723 8.607 12.4723 9.066C12.4723 9.498 12.5263 9.87 12.6343 10.182C12.7453 10.494 12.9043 10.734 13.1113 10.902C13.3183 11.07 13.5703 11.154 13.8673 11.154C14.2483 11.154 14.5423 11.0535 14.7493 10.8525C14.9593 10.6485 15.0643 10.389 15.0643 10.074H16.1983C16.1983 10.509 16.1038 10.8795 15.9148 11.1855C15.7288 11.4885 15.4618 11.721 15.1138 11.883C14.7658 12.045 14.3503 12.126 13.8673 12.126Z" fill="#B72974"/>
</svg>
