<svg width="305" height="160" viewBox="0 0 305 160" fill="none" xmlns="http://www.w3.org/2000/svg">
<path d="M34 34.6977C5 39.1977 1.5 67.6977 1.5 67.6977V159.698H283.5C283.5 159.698 338.501 2.57524 283.5 15.1977C268.083 18.7357 263.79 35.6372 248 34.6977C228.972 33.5654 231.436 3.38482 212.5 1.19767C186.5 -1.8054 189.166 30.4225 169 29.1977C156.271 28.4245 152.223 16.0557 139.5 15.1977C117.441 13.7101 125.5 48.1977 93.5 48.1977C69.6732 48.1977 57.545 31.0441 34 34.6977Z" fill="url(#paint0_linear_15_4658)"/>
<path d="M34 34.6977C6 37.6977 1.5 67.6977 1.5 67.6977V159.698H283.5C283.5 159.698 338.501 2.57524 283.5 15.1977C268.083 18.7357 263.79 35.6372 248 34.6977C228.972 33.5654 231.436 3.38482 212.5 1.19767C186.5 -1.8054 189.166 30.4225 169 29.1977C156.271 28.4245 152.223 16.0557 139.5 15.1977C117.441 13.7101 125.5 48.1977 93.5 48.1977C69.6732 48.1977 57.6912 32.1593 34 34.6977Z" stroke="white" stroke-width="2"/>
<defs>
<linearGradient id="paint0_linear_15_4658" x1="154.722" y1="1" x2="154.722" y2="159.698" gradientUnits="userSpaceOnUse">
<stop stop-color="white" stop-opacity="0.4"/>
<stop offset="1" stop-color="white" stop-opacity="0"/>
</linearGradient>
</defs>
</svg>
